#!OML:ASF F:\VICON\USERDATA\INSTALL\rory3\rory3.ASF
:FULLY-SPECIFIED
:DEGREES
35
root 0.46839172277925295 17.461201457325057 -14.42948997726715 6.623435443166822 0.4069962167479557 -2.3223815732006585
lfemur -16.18000370343527 7.673016279741946 -16.954807627620607
ltibia 22.79030332870145
lfoot -11.457498384400626 4.78068238987734
ltoes -13.191996160915684
rfemur -15.179004274937459 -2.52922456639151 19.596707382609736
rtibia 22.885804458798113
rfoot -13.638999822221948 -2.731960686365792
rtoes 4.452213954431633
lowerback -0.6422407923504667 -0.7457550213874655 0.7104927203033815
upperback 4.879410504959468 -1.1115203697699998 1.9161740167829582
thorax 5.430472886544093 -0.5689367557565124 1.5280344391743828
lowerneck -11.823402448986139 0.4878864350686276 -2.3372255207926687
upperneck 33.68848894135761 1.0922091056650092 0.6614025390121011
head 13.25348828132209 0.2636316869603382 0.8286067788688455
lclavicle 1.0938629865558613e-15 -2.215699550317695e-15
lhumerus -16.288308484312513 -0.6838659626251109 87.94949676647886
lradius 18.425305824301095
lwrist -0.2361021100667955
lhand -23.231903172750005 -3.259287345163731
lfingers 7.12502
lthumb 3.219126812858482 26.696192613605657
rclavicle 1.0938629865558613e-15 -2.215699550317695e-15
rhumerus -18.574310131684996 -15.902596113383645 -82.19889248877284
rradius 25.718903053145908
rwrist 31.958307705661525
rhand -18.247793840938265 -26.7316986911034
rfingers 7.12502
rthumb 8.031196195416975 -56.55909836051562
36
root 0.46610691099200957 17.480158414882297 -14.517572485659898 6.698668791389412 0.5398870131929652 -2.3864167828882605
lfemur -16.45156988024862 7.737235821810391 -16.870578561057425
ltibia 23.336699145642662
lfoot -11.513583565222552 4.616324812617859
ltoes -13.916296984291527
rfemur -15.489366399286915 -3.0703663521916047 19.77309275716314
rtibia 23.200454522886766
rfoot -13.883624304032873 -2.8079014142137777
rtoes 4.284827724257679
lowerback -0.3059897973897874 -0.6888827335772939 0.7287584075792644
upperback 4.923774150079993 -1.0215925159842143 1.9432331054770469
thorax 4.895386984482844 -0.5244663431095232 1.5558185222510201
lowerneck -11.948050409927427 0.4182153056332657 -2.339941168777764
upperneck 32.765553862846005 0.9723159629415605 0.7138523646864541
head 12.872804206854493 0.2417146129899544 0.8277445667320167
lclavicle 1.0953001492479253e-15 -2.2134106759602745e-15
lhumerus -16.86564217609175 -0.8722357346906291 87.93410253020406
lradius 18.593303605335098
lwrist 0.27004735324476403
lhand -23.24477973817779 -3.2647784936931967
lfingers 7.12502
lthumb 3.1864506201329643 26.66999978596369
rclavicle 1.0939599468576431e-15 -2.2155992838906857e-15
rhumerus -18.691265527537652 -15.814356159992842 -82.01497188061627
rradius 25.561588224472935
rwrist 31.927995932914786
rhand -18.227096514761225 -26.7778297022179
rfingers 7.12502
rthumb 8.040980426759717 -56.6185661743783
37
root 0.46522496942901737 17.48759258352746 -14.587256501966358 6.773072964686497 0.6503088717176622 -2.5008956992566316
lfemur -16.726486598038854 7.822873081696247 -16.70073816852702
ltibia 23.986519223797426
lfoot -11.49949372548183 4.39720805309536
ltoes -14.845247193478112
rfemur -15.797675547927152 -3.7911613861466336 20.058854422471555
rtibia 23.61316109159872
rfoot -14.236087977879778 -2.908595712932278
rtoes 4.01644105365091
lowerback 0.12594194770374256 -0.5963556055598354 0.7888784823706068
upperback 5.026394864945484 -0.8896425059786416 1.9842888826162568
thorax 4.2439668566861535 -0.45559521002013514 1.5799823902737724
lowerneck -12.146448975356385 0.3530712731737455 -2.320518162378736
upperneck 31.83156417868915 0.8606164072875511 0.7337618187341316
head 12.487239273610626 0.21979373174426892 0.8171252566773555
lclavicle 1.095391135641491e-15 -2.21330097942676e-15
lhumerus -17.641660297019115 -1.0118266419612028 87.8847329411103
lradius 18.749004764370664
lwrist 0.6984878700811823
lhand -23.263235725886677 -3.268444488418619
lfingers 7.12502
lthumb 3.1574288371727097 26.644693951612826
rclavicle 1.0939962219211498e-15 -2.2155540974444203e-15
rhumerus -18.819428103876472 -15.702088546321203 -81.84750631076832
rradius 25.340421312888104
rwrist 31.915781195924332
rhand -18.206959585979924 -26.81135932481595
rfingers 7.12502
rthumb 8.045629635746945 -56.67384336458056
38
root 0.46615605386630904 17.480387956402407 -14.628786471817637 6.887461091789653 0.7063460555368943 -2.5586434760377617
lfemur -17.04822245200978 7.953398518570883 -16.59475746372505
ltibia 24.722104646578877
lfoot -11.43122879564634 4.184731592646264
ltoes -15.9214509424413
rfemur -16.187390122130445 -4.49537880292403 20.291807645274325
rtibia 24.217818883696236
rfoot -14.680667452523247 -2.922028781108468
rtoes 3.687372656752176
lowerback 0.6340260656579393 -0.48115084410621306 0.7946314650661237
upperback 5.175916631379701 -0.7270780687541004 2.0048896706777795
thorax 3.603394081332028 -0.376215349448181 1.612470478165587
lowerneck -12.384360484589727 0.3023353215288669 -2.288704545452919
upperneck 30.87177621639763 0.7748224670379891 0.7273697427038702
head 12.109163774051698 0.2042200007220456 0.8001106400687192
lclavicle 1.095240541508638e-15 -2.213490455831649e-15
lhumerus -18.621970380676252 -1.0512338091209705 87.78377763428198
lradius 18.833501579054314
lwrist 0.8530187604114792
lhand -23.29951778025272 -3.251142589025741
lfingers 7.12502
lthumb 3.1252939450592665 26.622822092012484
rclavicle 1.0939814424298287e-15 -2.215572273781583e-15
rhumerus -18.914776988883773 -15.563858182625893 -81.70433615935731
rradius 25.065771518179464
rwrist 31.926853305782842
rhand -18.19330058880595 -26.842912872295933
rfingers 7.12502
rthumb 8.047629649040749 -56.734596205710574
